<svg version="1.1" viewBox="0.0 0.0 189.0 35.0" fill="none" stroke="none" stroke-linecap="square" stroke-miterlimit="10" xmlns:xlink="http://www.w3.org/1999/xlink" xmlns="http://www.w3.org/2000/svg"><clipPath id="p.0"><path d="m0 0l189.0 0l0 35.0l-189.0 0l0 -35.0z" clip-rule="nonzero"/></clipPath><g clip-path="url(#p.0)"><path fill="#000000" fill-opacity="0.0" d="m0 0l189.0 0l0 35.0l-189.0 0z" fill-rule="evenodd"/><path fill="#000000" fill-opacity="0.0" d="m0 0l212.50394 0l0 7.086614l-212.50394 0z" fill-rule="evenodd"/><path fill="#2c385e" d="m12.046875 14.571614q-1.078125 0 -2.109375 -0.265625q-1.015625 -0.265625 -1.625 -0.65625l0.84375 -1.796875q0.578125 0.375 1.390625 0.609375q0.8125 0.21875 1.59375 0.21875q1.59375 0 1.59375 -0.78125q0 -0.359375 -0.4375 -0.515625q-0.4375 -0.171875 -1.328125 -0.28125q-1.0625 -0.15625 -1.75 -0.359375q-0.6875 -0.21875 -1.1875 -0.734375q-0.5 -0.53125 -0.5 -1.515625q0 -0.8125 0.46875 -1.4375q0.46875 -0.640625 1.375 -0.984375q0.90625 -0.359375 2.140625 -0.359375q0.90625 0 1.8125 0.203125q0.90625 0.1875 1.5 0.546875l-0.84375 1.78125q-1.125 -0.640625 -2.46875 -0.640625q-0.796875 0 -1.203125 0.21875q-0.40625 0.21875 -0.40625 0.578125q0 0.40625 0.4375 0.5625q0.4375 0.15625 1.375 0.296875q1.0625 0.171875 1.734375 0.375q0.671875 0.203125 1.15625 0.734375q0.5 0.53125 0.5 1.46875q0 0.796875 -0.484375 1.421875q-0.46875 0.625 -1.390625 0.96875q-0.921875 0.34375 -2.1875 0.34375zm11.152267 -0.546875q-0.359375 0.28125 -0.90625 0.421875q-0.53125 0.125 -1.125 0.125q-1.53125 0 -2.375 -0.78125q-0.84375 -0.78125 -0.84375 -2.296875l0 -3.546875l-1.328125 0l0 -1.921875l1.328125 0l0 -2.09375l2.5 0l0 2.09375l2.140625 0l0 1.921875l-2.140625 0l0 3.515625q0 0.53125 0.28125 0.828125q0.28125 0.296875 0.796875 0.296875q0.578125 0 1.0 -0.3125l0.671875 1.75zm4.8818817 -8.3125q2.0 0 3.0625 0.953125q1.078125 0.953125 1.078125 2.875l0 4.90625l-2.328125 0l0 -1.078125q-0.703125 1.203125 -2.625 1.203125q-1.0 0 -1.734375 -0.328125q-0.71875 -0.34375 -1.109375 -0.9375q-0.375 -0.59375 -0.375 -1.34375q0 -1.203125 0.90625 -1.890625q0.90625 -0.6875 2.78125 -0.6875l1.984375 0q0 -0.8125 -0.5 -1.25q-0.484375 -0.4375 -1.484375 -0.4375q-0.6875 0 -1.359375 0.21875q-0.65625 0.21875 -1.109375 0.578125l-0.90625 -1.75q0.703125 -0.484375 1.6875 -0.75q0.984375 -0.28125 2.03125 -0.28125zm-0.1875 7.1875q0.640625 0 1.125 -0.296875q0.5 -0.296875 0.703125 -0.875l0 -0.875l-1.703125 0q-1.53125 0 -1.53125 1.0q0 0.484375 0.375 0.765625q0.375 0.28125 1.03125 0.28125zm11.82515 -7.1875q1.59375 0 2.578125 0.96875q0.984375 0.953125 0.984375 2.84375l0 4.921875l-2.5 0l0 -4.546875q0 -1.015625 -0.453125 -1.515625q-0.4375 -0.515625 -1.28125 -0.515625q-0.953125 0 -1.515625 0.59375q-0.5625 0.578125 -0.5625 1.734375l0 4.25l-2.484375 0l0 -8.609375l2.375 0l0 1.015625q0.5 -0.546875 1.234375 -0.84375q0.734375 -0.296875 1.625 -0.296875zm14.587265 -3.140625l0 11.875l-2.390625 0l0 -0.984375q-0.921875 1.109375 -2.6875 1.109375q-1.21875 0 -2.203125 -0.53125q-0.984375 -0.546875 -1.546875 -1.546875q-0.546875 -1.015625 -0.546875 -2.34375q0 -1.328125 0.546875 -2.328125q0.5625 -1.015625 1.546875 -1.5625q0.984375 -0.546875 2.203125 -0.546875q1.65625 0 2.578125 1.03125l0 -4.171875l2.5 0zm-4.640625 9.953125q0.9375 0 1.5625 -0.640625q0.625 -0.65625 0.625 -1.734375q0 -1.09375 -0.625 -1.734375q-0.625 -0.65625 -1.5625 -0.65625q-0.96875 0 -1.59375 0.65625q-0.609375 0.640625 -0.609375 1.734375q0 1.078125 0.609375 1.734375q0.625 0.640625 1.59375 0.640625zm10.4157715 -6.8125q2.0 0 3.0625 0.953125q1.078125 0.953125 1.078125 2.875l0 4.90625l-2.328125 0l0 -1.078125q-0.703125 1.203125 -2.625 1.203125q-1.0 0 -1.734375 -0.328125q-0.71875 -0.34375 -1.109375 -0.9375q-0.375 -0.59375 -0.375 -1.34375q0 -1.203125 0.90625 -1.890625q0.90625 -0.6875 2.78125 -0.6875l1.984375 0q0 -0.8125 -0.5 -1.25q-0.484375 -0.4375 -1.484375 -0.4375q-0.6875 0 -1.359375 0.21875q-0.65625 0.21875 -1.109375 0.578125l-0.90625 -1.75q0.703125 -0.484375 1.6875 -0.75q0.984375 -0.28125 2.03125 -0.28125zm-0.1875 7.1875q0.640625 0 1.125 -0.296875q0.5 -0.296875 0.703125 -0.875l0 -0.875l-1.703125 0q-1.53125 0 -1.53125 1.0q0 0.484375 0.375 0.765625q0.375 0.28125 1.03125 0.28125zm8.965775 -5.921875q0.453125 -0.625 1.203125 -0.9375q0.765625 -0.328125 1.765625 -0.328125l0 2.296875q-0.421875 -0.03125 -0.5625 -0.03125q-1.078125 0 -1.6875 0.609375q-0.609375 0.59375 -0.609375 1.796875l0 4.0625l-2.484375 0l0 -8.609375l2.375 0l0 1.140625zm13.286636 -4.40625l0 11.875l-2.390625 0l0 -0.984375q-0.921875 1.109375 -2.6875 1.109375q-1.21875 0 -2.203125 -0.53125q-0.984375 -0.546875 -1.546875 -1.546875q-0.546875 -1.015625 -0.546875 -2.34375q0 -1.328125 0.546875 -2.328125q0.5625 -1.015625 1.546875 -1.5625q0.984375 -0.546875 2.203125 -0.546875q1.65625 0 2.578125 1.03125l0 -4.171875l2.5 0zm-4.640625 9.953125q0.9375 0 1.5625 -0.640625q0.625 -0.65625 0.625 -1.734375q0 -1.09375 -0.625 -1.734375q-0.625 -0.65625 -1.5625 -0.65625q-0.96875 0 -1.59375 0.65625q-0.609375 0.640625 -0.609375 1.734375q0 1.078125 0.609375 1.734375q0.625 0.640625 1.59375 0.640625zm17.962646 -6.8125q1.625 0 2.578125 0.953125q0.953125 0.953125 0.953125 2.859375l0 4.921875l-2.5 0l0 -4.546875q0 -1.015625 -0.421875 -1.515625q-0.421875 -0.515625 -1.21875 -0.515625q-0.875 0 -1.390625 0.578125q-0.515625 0.5625 -0.515625 1.6875l0 4.3125l-2.484375 0l0 -4.546875q0 -2.03125 -1.640625 -2.03125q-0.859375 0 -1.375 0.578125q-0.515625 0.5625 -0.515625 1.6875l0 4.3125l-2.484375 0l0 -8.609375l2.375 0l0 1.0q0.484375 -0.546875 1.171875 -0.828125q0.703125 -0.296875 1.53125 -0.296875q0.921875 0 1.65625 0.359375q0.734375 0.359375 1.1875 1.046875q0.515625 -0.671875 1.328125 -1.03125q0.8125 -0.375 1.765625 -0.375zm14.190277 4.46875q0 0.046875 -0.046875 0.671875l-6.5 0q0.171875 0.796875 0.828125 1.265625q0.65625 0.453125 1.625 0.453125q0.671875 0 1.1875 -0.1875q0.53125 -0.203125 0.96875 -0.640625l1.328125 1.4375q-1.203125 1.390625 -3.546875 1.390625q-1.453125 0 -2.578125 -0.5625q-1.109375 -0.578125 -1.71875 -1.578125q-0.609375 -1.015625 -0.609375 -2.28125q0 -1.265625 0.59375 -2.28125q0.609375 -1.015625 1.65625 -1.578125q1.046875 -0.578125 2.34375 -0.578125q1.265625 0 2.28125 0.546875q1.03125 0.546875 1.609375 1.5625q0.578125 1.015625 0.578125 2.359375zm-4.453125 -2.578125q-0.859375 0 -1.4375 0.484375q-0.5625 0.46875 -0.703125 1.296875l4.25 0q-0.125 -0.8125 -0.703125 -1.296875q-0.578125 -0.484375 -1.40625 -0.484375zm11.674149 6.421875q-0.359375 0.28125 -0.90625 0.421875q-0.53125 0.125 -1.125 0.125q-1.53125 0 -2.375 -0.78125q-0.84375 -0.78125 -0.84375 -2.296875l0 -3.546875l-1.328125 0l0 -1.921875l1.328125 0l0 -2.09375l2.5 0l0 2.09375l2.140625 0l0 1.921875l-2.140625 0l0 3.515625q0 0.53125 0.28125 0.828125q0.28125 0.296875 0.796875 0.296875q0.578125 0 1.0 -0.3125l0.671875 1.75zm4.8818817 -8.3125q2.0 0 3.0625 0.953125q1.078125 0.953125 1.078125 2.875l0 4.90625l-2.328125 0l0 -1.078125q-0.703125 1.203125 -2.625 1.203125q-1.0 0 -1.734375 -0.328125q-0.71875 -0.34375 -1.109375 -0.9375q-0.375 -0.59375 -0.375 -1.34375q0 -1.203125 0.90625 -1.890625q0.90625 -0.6875 2.78125 -0.6875l1.984375 0q0 -0.8125 -0.5 -1.25q-0.484375 -0.4375 -1.484375 -0.4375q-0.6875 0 -1.359375 0.21875q-0.65625 0.21875 -1.109375 0.578125l-0.90625 -1.75q0.703125 -0.484375 1.6875 -0.75q0.984375 -0.28125 2.03125 -0.28125zm-0.1875 7.1875q0.640625 0 1.125 -0.296875q0.5 -0.296875 0.703125 -0.875l0 -0.875l-1.703125 0q-1.53125 0 -1.53125 1.0q0 0.484375 0.375 0.765625q0.375 0.28125 1.03125 0.28125z" fill-rule="nonzero"/></g></svg>